<svg aria-roledescription="gitGraph" role="graphics-document document" height="636px" xmlns="http://www.w3.org/2000/svg" width="581px" id="graph-div" xmlns:xlink="http://www.w3.org/1999/xlink" xmlns:ev="http://www.w3.org/2001/xml-events" style="overflow: hidden; max-width: 100%;"><g id="viewport-20251128043450487" class="svg-pan-zoom_viewport" transform="matrix(0.4861910113996274,0,0,0.4861910113996274,117.08665088510257,161.08045116433675)" style="transform: matrix(0.486191, 0, 0, 0.486191, 117.087, 161.08);"><style>#graph-div{font-family:"trebuchet ms",verdana,arial,sans-serif;font-size:16px;fill:#333;}#graph-div .error-icon{fill:hsl(220.5882352941, 100%, 98.3333333333%);}#graph-div .error-text{fill:rgb(8.5000000002, 5.7500000001, 0);stroke:rgb(8.5000000002, 5.7500000001, 0);}#graph-div .edge-thickness-normal{stroke-width:2px;}#graph-div .edge-thickness-thick{stroke-width:3.5px;}#graph-div .edge-pattern-solid{stroke-dasharray:0;}#graph-div .edge-pattern-dashed{stroke-dasharray:3;}#graph-div .edge-pattern-dotted{stroke-dasharray:2;}#graph-div .marker{fill:#0b0b0b;stroke:#0b0b0b;}#graph-div .marker.cross{stroke:#0b0b0b;}#graph-div svg{font-family:"trebuchet ms",verdana,arial,sans-serif;font-size:16px;}#graph-div .commit-id,#graph-div .commit-msg,#graph-div .branch-label{fill:lightgrey;color:lightgrey;font-family:'trebuchet ms',verdana,arial,sans-serif;font-family:var(--mermaid-font-family);}#graph-div .branch-label0{fill:#333;}#graph-div .commit0{stroke:hsl(40.5882352941, 100%, 68.3333333333%);fill:hsl(40.5882352941, 100%, 68.3333333333%);}#graph-div .commit-highlight0{stroke:rgb(0, 52.2500000001, 161.5000000002);fill:rgb(0, 52.2500000001, 161.5000000002);}#graph-div .label0{fill:hsl(40.5882352941, 100%, 68.3333333333%);}#graph-div .arrow0{stroke:hsl(40.5882352941, 100%, 68.3333333333%);}#graph-div .branch-label1{fill:#333;}#graph-div .commit1{stroke:hsl(-79.4117647059, 100%, 68.3333333333%);fill:hsl(-79.4117647059, 100%, 68.3333333333%);}#graph-div .commit-highlight1{stroke:rgb(52.2500000001, 161.5000000002, 0);fill:rgb(52.2500000001, 161.5000000002, 0);}#graph-div .label1{fill:hsl(-79.4117647059, 100%, 68.3333333333%);}#graph-div .arrow1{stroke:hsl(-79.4117647059, 100%, 68.3333333333%);}#graph-div .branch-label2{fill:#333;}#graph-div .commit2{stroke:hsl(220.5882352941, 100%, 73.3333333333%);fill:hsl(220.5882352941, 100%, 73.3333333333%);}#graph-div .commit-highlight2{stroke:rgb(136.0000000002, 92.0000000001, 0);fill:rgb(136.0000000002, 92.0000000001, 0);}#graph-div .label2{fill:hsl(220.5882352941, 100%, 73.3333333333%);}#graph-div .arrow2{stroke:hsl(220.5882352941, 100%, 73.3333333333%);}#graph-div .branch-label3{fill:#333;}#graph-div .commit3{stroke:hsl(10.5882352941, 100%, 68.3333333333%);fill:hsl(10.5882352941, 100%, 68.3333333333%);}#graph-div .commit-highlight3{stroke:rgb(0, 133.0000000002, 161.5000000002);fill:rgb(0, 133.0000000002, 161.5000000002);}#graph-div .label3{fill:hsl(10.5882352941, 100%, 68.3333333333%);}#graph-div .arrow3{stroke:hsl(10.5882352941, 100%, 68.3333333333%);}#graph-div .branch-label4{fill:#333;}#graph-div .commit4{stroke:hsl(-19.4117647059, 100%, 68.3333333333%);fill:hsl(-19.4117647059, 100%, 68.3333333333%);}#graph-div .commit-highlight4{stroke:rgb(0, 161.5000000002, 109.2500000001);fill:rgb(0, 161.5000000002, 109.2500000001);}#graph-div .label4{fill:hsl(-19.4117647059, 100%, 68.3333333333%);}#graph-div .arrow4{stroke:hsl(-19.4117647059, 100%, 68.3333333333%);}#graph-div .branch-label5{fill:#333;}#graph-div .commit5{stroke:hsl(-49.4117647059, 100%, 68.3333333333%);fill:hsl(-49.4117647059, 100%, 68.3333333333%);}#graph-div .commit-highlight5{stroke:rgb(0, 161.5000000002, 28.5);fill:rgb(0, 161.5000000002, 28.5);}#graph-div .label5{fill:hsl(-49.4117647059, 100%, 68.3333333333%);}#graph-div .arrow5{stroke:hsl(-49.4117647059, 100%, 68.3333333333%);}#graph-div .branch-label6{fill:#333;}#graph-div .commit6{stroke:hsl(100.5882352941, 100%, 68.3333333333%);fill:hsl(100.5882352941, 100%, 68.3333333333%);}#graph-div .commit-highlight6{stroke:rgb(109.2500000001, 0, 161.5000000002);fill:rgb(109.2500000001, 0, 161.5000000002);}#graph-div .label6{fill:hsl(100.5882352941, 100%, 68.3333333333%);}#graph-div .arrow6{stroke:hsl(100.5882352941, 100%, 68.3333333333%);}#graph-div .branch-label7{fill:#333;}#graph-div .commit7{stroke:hsl(160.5882352941, 100%, 68.3333333333%);fill:hsl(160.5882352941, 100%, 68.3333333333%);}#graph-div .commit-highlight7{stroke:rgb(161.5000000002, 0, 52.2500000001);fill:rgb(161.5000000002, 0, 52.2500000001);}#graph-div .label7{fill:hsl(160.5882352941, 100%, 68.3333333333%);}#graph-div .arrow7{stroke:hsl(160.5882352941, 100%, 68.3333333333%);}#graph-div .branch{stroke-width:1;stroke:#0b0b0b;stroke-dasharray:2;}#graph-div .commit-label{font-size:10px;fill:rgb(11.0000000001, 34.0000000002, 0);}#graph-div .commit-label-bkg{font-size:10px;fill:hsl(-79.4117647059, 100%, 93.3333333333%);opacity:0.5;}#graph-div .tag-label{font-size:10px;fill:#333;}#graph-div .tag-label-bkg{fill:#fff4dd;stroke:hsl(40.5882352941, 60%, 83.3333333333%);}#graph-div .tag-hole{fill:#333;}#graph-div .commit-merge{stroke:#fff4dd;fill:#fff4dd;}#graph-div .commit-reverse{stroke:#fff4dd;fill:#fff4dd;stroke-width:3;}#graph-div .commit-highlight-inner{stroke:#fff4dd;fill:#fff4dd;}#graph-div .arrow{stroke-width:8;stroke-linecap:round;fill:none;}#graph-div .gitTitleText{text-anchor:middle;font-size:18px;fill:#333;}#graph-div :root{--mermaid-font-family:"trebuchet ms",verdana,arial,sans-serif;}</style><g></g><g class="commit-bullets"></g><g class="commit-labels"></g><g><line class="branch branch0" y2="0" x2="900" y1="0" x1="0"></line><rect transform="translate(-19, -9.5)" height="23" width="53" y="-1.5" x="-69" ry="4" rx="4" class="branchLabelBkg label0"></rect><g class="branchLabel"><g transform="translate(-79, -10.5)" class="label branch-label0"><text><tspan class="row" x="0" dy="1em" xml:space="preserve">main</tspan></text></g></g><line class="branch branch1" y2="90" x2="900" y1="90" x1="0"></line><rect transform="translate(-19, 80.5)" height="23" width="74.421875" y="-1.5" x="-90.421875" ry="4" rx="4" class="branchLabelBkg label1"></rect><g class="branchLabel"><g transform="translate(-100.421875, 79.5)" class="label branch-label1"><text><tspan class="row" x="0" dy="1em" xml:space="preserve">develop</tspan></text></g></g><line class="branch branch2" y2="180" x2="900" y1="180" x1="0"></line><rect transform="translate(-19, 170.5)" height="23" width="115.3125" y="-1.5" x="-131.3125" ry="4" rx="4" class="branchLabelBkg label2"></rect><g class="branchLabel"><g transform="translate(-141.3125, 169.5)" class="label branch-label2"><text><tspan class="row" x="0" dy="1em" xml:space="preserve">release/1.0.0</tspan></text></g></g><line class="branch branch3" y2="270" x2="900" y1="270" x1="0"></line><rect transform="translate(-19, 260.5)" height="23" width="185.453125" y="-1.5" x="-201.453125" ry="4" rx="4" class="branchLabelBkg label3"></rect><g class="branchLabel"><g transform="translate(-211.453125, 259.5)" class="label branch-label3"><text><tspan class="row" x="0" dy="1em" xml:space="preserve">feat/user1-task1-detail</tspan></text></g></g><line class="branch branch4" y2="360" x2="900" y1="360" x1="0"></line><rect transform="translate(-19, 350.5)" height="23" width="185.453125" y="-1.5" x="-201.453125" ry="4" rx="4" class="branchLabelBkg label4"></rect><g class="branchLabel"><g transform="translate(-211.453125, 349.5)" class="label branch-label4"><text><tspan class="row" x="0" dy="1em" xml:space="preserve">feat/user2-task2-detail</tspan></text></g></g><line class="branch branch5" y2="450" x2="900" y1="450" x1="0"></line><rect transform="translate(-19, 440.5)" height="23" width="174.546875" y="-1.5" x="-190.546875" ry="4" rx="4" class="branchLabelBkg label5"></rect><g class="branchLabel"><g transform="translate(-200.546875, 439.5)" class="label branch-label5"><text><tspan class="row" x="0" dy="1em" xml:space="preserve">fix/user1-task1-detail</tspan></text></g></g><line class="branch branch6" y2="540" x2="900" y1="540" x1="0"></line><rect transform="translate(-19, 530.5)" height="23" width="115.3125" y="-1.5" x="-131.3125" ry="4" rx="4" class="branchLabelBkg label6"></rect><g class="branchLabel"><g transform="translate(-141.3125, 529.5)" class="label branch-label6"><text><tspan class="row" x="0" dy="1em" xml:space="preserve">release/1.1.0</tspan></text></g></g><line class="branch branch7" y2="630" x2="900" y1="630" x1="0"></line><rect transform="translate(-19, 620.5)" height="23" width="185.453125" y="-1.5" x="-201.453125" ry="4" rx="4" class="branchLabelBkg label7"></rect><g class="branchLabel"><g transform="translate(-211.453125, 619.5)" class="label branch-label7"><text><tspan class="row" x="0" dy="1em" xml:space="preserve">feat/user1-task3-detail</tspan></text></g></g></g><g class="commit-arrows"><path class="arrow arrow4" d="M 10 0 L 10 340 A 20 20, 0, 0, 0, 30 360 L 60 360"></path><path class="arrow arrow4" d="M 60 360 L 110 360"></path><path class="arrow arrow3" d="M 10 0 L 10 250 A 20 20, 0, 0, 0, 30 270 L 160 270"></path><path class="arrow arrow3" d="M 160 270 L 210 270"></path><path class="arrow arrow1" d="M 10 0 L 10 70 A 20 20, 0, 0, 0, 30 90 L 260 90"></path><path class="arrow arrow3" d="M 210 270 L 240 270 A 20 20, 0, 0, 0, 260 250 L 260 90"></path><path class="arrow arrow4" d="M 110 360 L 310 360"></path><path class="arrow arrow2" d="M 10 0 L 10 160 A 20 20, 0, 0, 0, 30 180 L 360 180"></path><path class="arrow arrow1" d="M 260 90 L 340 90 A 20 20, 0, 0, 1, 360 110 L 360 180"></path><path class="arrow arrow1" d="M 260 90 L 410 90"></path><path class="arrow arrow4" d="M 310 360 L 390 360 A 20 20, 0, 0, 0, 410 340 L 410 90"></path><path class="arrow arrow2" d="M 360 180 L 460 180"></path><path class="arrow arrow1" d="M 410 90 L 440 90 A 20 20, 0, 0, 1, 460 110 L 460 180"></path><path class="arrow arrow0" d="M 10 0 L 510 0"></path><path class="arrow arrow2" d="M 460 180 L 490 180 A 20 20, 0, 0, 0, 510 160 L 510 0"></path><path class="arrow arrow1" d="M 410 90 L 560 90"></path><path class="arrow arrow2" d="M 460 180 L 540 180 A 20 20, 0, 0, 0, 560 160 L 560 90"></path><path class="arrow arrow5" d="M 510 0 L 510 430 A 20 20, 0, 0, 0, 530 450 L 610 450"></path><path class="arrow arrow0" d="M 510 0 L 660 0"></path><path class="arrow arrow5" d="M 610 450 L 640 450 A 20 20, 0, 0, 0, 660 430 L 660 0"></path><path class="arrow arrow1" d="M 560 90 L 710 90"></path><path class="arrow arrow5" d="M 610 450 L 690 450 A 20 20, 0, 0, 0, 710 430 L 710 90"></path><path class="arrow arrow7" d="M 710 90 L 710 610 A 20 20, 0, 0, 0, 730 630 L 760 630"></path><path class="arrow arrow1" d="M 710 90 L 810 90"></path><path class="arrow arrow7" d="M 760 630 L 790 630 A 20 20, 0, 0, 0, 810 610 L 810 90"></path><path class="arrow arrow6" d="M 710 90 L 710 520 A 20 20, 0, 0, 0, 730 540 L 860 540"></path><path class="arrow arrow1" d="M 810 90 L 840 90 A 20 20, 0, 0, 1, 860 110 L 860 540"></path></g><g class="commit-bullets"><circle class="commit 0-61da450 commit0" r="10" cy="0" cx="10"></circle><circle class="commit 1-ef7aabd commit4" r="10" cy="360" cx="60"></circle><circle class="commit 2-8a766fe commit4" r="10" cy="360" cx="110"></circle><circle class="commit 3-d35ae33 commit3" r="10" cy="270" cx="160"></circle><circle class="commit 4-4f64157 commit3" r="10" cy="270" cx="210"></circle><circle class="commit 5-4ae5c0d commit1" r="9" cy="90" cx="260"></circle><circle class="commit commit-merge 5-4ae5c0d commit1" r="6" cy="90" cx="260"></circle><circle class="commit 6-c064c82 commit4" r="10" cy="360" cx="310"></circle><circle class="commit 7-83b05c4 commit2" r="9" cy="180" cx="360"></circle><circle class="commit commit-merge 7-83b05c4 commit2" r="6" cy="180" cx="360"></circle><circle class="commit 8-0d8fb5d commit1" r="9" cy="90" cx="410"></circle><circle class="commit commit-merge 8-0d8fb5d commit1" r="6" cy="90" cx="410"></circle><circle class="commit 9-da34704 commit2" r="9" cy="180" cx="460"></circle><circle class="commit commit-merge 9-da34704 commit2" r="6" cy="180" cx="460"></circle><circle class="commit 10-6adcd96 commit0" r="9" cy="0" cx="510"></circle><circle class="commit commit-merge 10-6adcd96 commit0" r="6" cy="0" cx="510"></circle><circle class="commit 11-02e7295 commit1" r="9" cy="90" cx="560"></circle><circle class="commit commit-merge 11-02e7295 commit1" r="6" cy="90" cx="560"></circle><circle class="commit 12-ecef04b commit5" r="10" cy="450" cx="610"></circle><circle class="commit 13-c28a635 commit0" r="9" cy="0" cx="660"></circle><circle class="commit commit-merge 13-c28a635 commit0" r="6" cy="0" cx="660"></circle><circle class="commit 14-5f4d25e commit1" r="9" cy="90" cx="710"></circle><circle class="commit commit-merge 14-5f4d25e commit1" r="6" cy="90" cx="710"></circle><circle class="commit 15-3a19250 commit7" r="10" cy="630" cx="760"></circle><circle class="commit 16-3d4da98 commit1" r="9" cy="90" cx="810"></circle><circle class="commit commit-merge 16-3d4da98 commit1" r="6" cy="90" cx="810"></circle><circle class="commit 17-3b91c0f commit6" r="9" cy="540" cx="860"></circle><circle class="commit commit-merge 17-3b91c0f commit6" r="6" cy="540" cx="860"></circle></g><g class="commit-labels"><g transform="translate(-28.768125, 25.629375000000003) rotate(-45, 0, 0)"><rect height="15" width="49.96875" y="13.5" x="-14.984375" class="commit-label-bkg"></rect><text class="commit-label" y="25" x="-12.984375">0-61da450</text></g><g transform="translate(-28.388125, 25.289375) rotate(-45, 50, 360)"><rect height="15" width="48.96875" y="373.5" x="35.515625" class="commit-label-bkg"></rect><text class="commit-label" y="385" x="37.515625">1-ef7aabd</text></g><g transform="translate(-28.1328125, 25.0609375) rotate(-45, 100, 360)"><rect height="15" width="48.296875" y="373.5" x="85.8515625" class="commit-label-bkg"></rect><text class="commit-label" y="385" x="87.8515625">2-8a766fe</text></g><g transform="translate(-28.845312500000002, 25.6984375) rotate(-45, 150, 270)"><rect height="15" width="50.171875" y="283.5" x="134.9140625" class="commit-label-bkg"></rect><text class="commit-label" y="295" x="136.9140625">3-d35ae33</text></g><g transform="translate(-28.0496875, 24.986562499999998) rotate(-45, 200, 270)"><rect height="15" width="48.078125" y="283.5" x="185.9609375" class="commit-label-bkg"></rect><text class="commit-label" y="295" x="187.9609375">4-4f64157</text></g><polygon points="212.6953125,72.8
          212.6953125,68.8
          220.6953125,63.274609375
          299.3046875,63.274609375
          299.3046875,78.325390625
          220.6953125,78.325390625" class="tag-label-bkg"></polygon><circle class="tag-hole" r="1.5" cy="70.8" cx="216.6953125"></circle><text x="224.6953125" class="tag-label" y="74">Squash &amp; Merge</text><g transform="translate(-28.417812499999997, 25.315937499999997) rotate(-45, 300, 360)"><rect height="15" width="49.046875" y="373.5" x="285.4765625" class="commit-label-bkg"></rect><text class="commit-label" y="385" x="287.4765625">6-c064c82</text></g><polygon points="314.9375,162.8
          314.9375,158.8
          322.9375,153.274609375
          397.0625,153.274609375
          397.0625,168.325390625
          322.9375,168.325390625" class="tag-label-bkg"></polygon><circle class="tag-hole" r="1.5" cy="160.8" cx="318.9375"></circle><text x="326.9375" class="tag-label" y="164">Merge &amp; CI/CD</text><polygon points="362.6953125,72.8
          362.6953125,68.8
          370.6953125,63.274609375
          449.3046875,63.274609375
          449.3046875,78.325390625
          370.6953125,78.325390625" class="tag-label-bkg"></polygon><circle class="tag-hole" r="1.5" cy="70.8" cx="366.6953125"></circle><text x="374.6953125" class="tag-label" y="74">Squash &amp; Merge</text><polygon points="414.9375,162.8
          414.9375,158.8
          422.9375,153.274609375
          497.0625,153.274609375
          497.0625,168.325390625
          422.9375,168.325390625" class="tag-label-bkg"></polygon><circle class="tag-hole" r="1.5" cy="160.8" cx="418.9375"></circle><text x="426.9375" class="tag-label" y="164">Merge &amp; CI/CD</text><polygon points="443.0859375,-17.2
          443.0859375,-21.2
          451.0859375,-26.725390625
          568.9140625,-26.725390625
          568.9140625,-11.674609375
          451.0859375,-11.674609375" class="tag-label-bkg"></polygon><circle class="tag-hole" r="1.5" cy="-19.2" cx="447.0859375"></circle><text x="455.0859375" class="tag-label" y="-16">Squash &amp; Merge &amp; CI/CD</text><polygon points="534.5390625,72.8
          534.5390625,68.8
          542.5390625,63.274609375
          577.4609375,63.274609375
          577.4609375,78.325390625
          542.5390625,78.325390625" class="tag-label-bkg"></polygon><circle class="tag-hole" r="1.5" cy="70.8" cx="538.5390625"></circle><text x="546.5390625" class="tag-label" y="74">Merge</text><g transform="translate(-30.216874999999998, 26.925625) rotate(-45, 600, 450)"><rect height="15" width="53.78125" y="463.5" x="583.109375" class="commit-label-bkg"></rect><text class="commit-label" y="475" x="585.109375">12-ecef04b</text></g><polygon points="580.8515625,432.8
          580.8515625,428.8
          588.8515625,423.274609375
          631.1484375,423.274609375
          631.1484375,438.325390625
          588.8515625,438.325390625" class="tag-label-bkg"></polygon><circle class="tag-hole" r="1.5" cy="430.8" cx="584.8515625"></circle><text x="592.8515625" class="tag-label" y="434">fix: bug</text><polygon points="593.0859375,-17.2
          593.0859375,-21.2
          601.0859375,-26.725390625
          718.9140625,-26.725390625
          718.9140625,-11.674609375
          601.0859375,-11.674609375" class="tag-label-bkg"></polygon><circle class="tag-hole" r="1.5" cy="-19.2" cx="597.0859375"></circle><text x="605.0859375" class="tag-label" y="-16">Squash &amp; Merge &amp; CI/CD</text><polygon points="684.5390625,72.8
          684.5390625,68.8
          692.5390625,63.274609375
          727.4609375,63.274609375
          727.4609375,78.325390625
          692.5390625,78.325390625" class="tag-label-bkg"></polygon><circle class="tag-hole" r="1.5" cy="70.8" cx="688.5390625"></circle><text x="696.5390625" class="tag-label" y="74">Merge</text><g transform="translate(-30.6384375, 27.3028125) rotate(-45, 750, 630)"><rect height="15" width="54.890625" y="643.5" x="732.5546875" class="commit-label-bkg"></rect><text class="commit-label" y="655" x="734.5546875">15-3a19250</text></g><polygon points="762.6953125,72.8
          762.6953125,68.8
          770.6953125,63.274609375
          849.3046875,63.274609375
          849.3046875,78.325390625
          770.6953125,78.325390625" class="tag-label-bkg"></polygon><circle class="tag-hole" r="1.5" cy="70.8" cx="766.6953125"></circle><text x="774.6953125" class="tag-label" y="74">Squash &amp; Merge</text><polygon points="814.9375,522.8
          814.9375,518.8
          822.9375,513.274609375
          897.0625,513.274609375
          897.0625,528.325390625
          822.9375,528.325390625" class="tag-label-bkg"></polygon><circle class="tag-hole" r="1.5" cy="520.8" cx="818.9375"></circle><text x="826.9375" class="tag-label" y="524">Merge &amp; CI/CD</text></g></g><defs><style id="svg-pan-zoom-controls-styles" type="text/css">.svg-pan-zoom-control { cursor: pointer; fill: black; fill-opacity: 0.333; } .svg-pan-zoom-control:hover { fill-opacity: 0.8; } .svg-pan-zoom-control-background { fill: white; fill-opacity: 0.5; } .svg-pan-zoom-control-background { fill-opacity: 0.8; }</style></defs><g id="svg-pan-zoom-controls" transform="translate(511 560) scale(0.75)" class="svg-pan-zoom-control"><g id="svg-pan-zoom-zoom-in" transform="translate(30.5 5) scale(0.015)" class="svg-pan-zoom-control"><rect x="0" y="0" width="1500" height="1400" class="svg-pan-zoom-control-background"></rect><path d="M1280 576v128q0 26 -19 45t-45 19h-320v320q0 26 -19 45t-45 19h-128q-26 0 -45 -19t-19 -45v-320h-320q-26 0 -45 -19t-19 -45v-128q0 -26 19 -45t45 -19h320v-320q0 -26 19 -45t45 -19h128q26 0 45 19t19 45v320h320q26 0 45 19t19 45zM1536 1120v-960 q0 -119 -84.5 -203.5t-203.5 -84.5h-960q-119 0 -203.5 84.5t-84.5 203.5v960q0 119 84.5 203.5t203.5 84.5h960q119 0 203.5 -84.5t84.5 -203.5z" class="svg-pan-zoom-control-element"></path></g><g id="svg-pan-zoom-reset-pan-zoom" transform="translate(5 35) scale(0.4)" class="svg-pan-zoom-control"><rect x="2" y="2" width="182" height="58" class="svg-pan-zoom-control-background"></rect><path d="M33.051,20.632c-0.742-0.406-1.854-0.609-3.338-0.609h-7.969v9.281h7.769c1.543,0,2.701-0.188,3.473-0.562c1.365-0.656,2.048-1.953,2.048-3.891C35.032,22.757,34.372,21.351,33.051,20.632z" class="svg-pan-zoom-control-element"></path><path d="M170.231,0.5H15.847C7.102,0.5,0.5,5.708,0.5,11.84v38.861C0.5,56.833,7.102,61.5,15.847,61.5h154.384c8.745,0,15.269-4.667,15.269-10.798V11.84C185.5,5.708,178.976,0.5,170.231,0.5z M42.837,48.569h-7.969c-0.219-0.766-0.375-1.383-0.469-1.852c-0.188-0.969-0.289-1.961-0.305-2.977l-0.047-3.211c-0.03-2.203-0.41-3.672-1.142-4.406c-0.732-0.734-2.103-1.102-4.113-1.102h-7.05v13.547h-7.055V14.022h16.524c2.361,0.047,4.178,0.344,5.45,0.891c1.272,0.547,2.351,1.352,3.234,2.414c0.731,0.875,1.31,1.844,1.737,2.906s0.64,2.273,0.64,3.633c0,1.641-0.414,3.254-1.242,4.84s-2.195,2.707-4.102,3.363c1.594,0.641,2.723,1.551,3.387,2.73s0.996,2.98,0.996,5.402v2.32c0,1.578,0.063,2.648,0.19,3.211c0.19,0.891,0.635,1.547,1.333,1.969V48.569z M75.579,48.569h-26.18V14.022h25.336v6.117H56.454v7.336h16.781v6H56.454v8.883h19.125V48.569z M104.497,46.331c-2.44,2.086-5.887,3.129-10.34,3.129c-4.548,0-8.125-1.027-10.731-3.082s-3.909-4.879-3.909-8.473h6.891c0.224,1.578,0.662,2.758,1.316,3.539c1.196,1.422,3.246,2.133,6.15,2.133c1.739,0,3.151-0.188,4.236-0.562c2.058-0.719,3.087-2.055,3.087-4.008c0-1.141-0.504-2.023-1.512-2.648c-1.008-0.609-2.607-1.148-4.796-1.617l-3.74-0.82c-3.676-0.812-6.201-1.695-7.576-2.648c-2.328-1.594-3.492-4.086-3.492-7.477c0-3.094,1.139-5.664,3.417-7.711s5.623-3.07,10.036-3.07c3.685,0,6.829,0.965,9.431,2.895c2.602,1.93,3.966,4.73,4.093,8.402h-6.938c-0.128-2.078-1.057-3.555-2.787-4.43c-1.154-0.578-2.587-0.867-4.301-0.867c-1.907,0-3.428,0.375-4.565,1.125c-1.138,0.75-1.706,1.797-1.706,3.141c0,1.234,0.561,2.156,1.682,2.766c0.721,0.406,2.25,0.883,4.589,1.43l6.063,1.43c2.657,0.625,4.648,1.461,5.975,2.508c2.059,1.625,3.089,3.977,3.089,7.055C108.157,41.624,106.937,44.245,104.497,46.331z M139.61,48.569h-26.18V14.022h25.336v6.117h-18.281v7.336h16.781v6h-16.781v8.883h19.125V48.569z M170.337,20.14h-10.336v28.43h-7.266V20.14h-10.383v-6.117h27.984V20.14z" class="svg-pan-zoom-control-element"></path></g><g id="svg-pan-zoom-zoom-out" transform="translate(30.5 70) scale(0.015)" class="svg-pan-zoom-control"><rect x="0" y="0" width="1500" height="1400" class="svg-pan-zoom-control-background"></rect><path d="M1280 576v128q0 26 -19 45t-45 19h-896q-26 0 -45 -19t-19 -45v-128q0 -26 19 -45t45 -19h896q26 0 45 19t19 45zM1536 1120v-960q0 -119 -84.5 -203.5t-203.5 -84.5h-960q-119 0 -203.5 84.5t-84.5 203.5v960q0 119 84.5 203.5t203.5 84.5h960q119 0 203.5 -84.5 t84.5 -203.5z" class="svg-pan-zoom-control-element"></path></g></g></svg>